{"title":"Tokyo Ghoul Season 1 (EngDub) 720p x264 Download","magnet":"magnet:?xt=urn:btih:92ef8c6ced9c06191e3bd4c45928fa0bb8239e2a&dn=Tokyo+Ghoul+Season+1+%28EngDub%29+720p+x264+Download&tr=udp%3A%2F%2Ftracker.leechers-paradise.org%3A6969&tr=udp%3A%2F%2Fzer0day.ch%3A1337&tr=udp%3A%2F%2Fopen.demonii.com%3A1337&tr=udp%3A%2F%2Ftracker.coppersurfer.tk%3A6969&tr=udp%3A%2F%2Fexodus.desync.com%3A6969","uploader":"digimaza","categoryP":"video","categoryS":"hd___tv_shows","size":"3198918775","seeders":"1","leechers":"2","description":"Tokyo Ghoul Season 1 (EngDub) 720p x264 Download \r\n..::File Specs::.. \r\nGeneral \r\n\r\nFormat : Matroska \r\nFormat version : Version 4 / Version 2 \r\nDuration : 26 min 8 s \r\nOverall bit rate : 1 461 kb/s \r\n\r\nVideo \r\nID : 1 \r\nFormat : AVC \r\nFormat/Info : Advanced Video Codec \r\nFormat profile : <a class=\"__cf_email__\" href=\"/cdn-cgi/l/email-protection\" data-cfemail=\"054d6c626d4549362b34\">[email&#xA0;protected]</a><script data-cfhash=\"f9e31\" type=\"text/javascript\">/* <![CDATA[ */!function(t,e,r,n,c,a,p){try{t=document.currentScript||function(){for(t=document.getElementsByTagName('script'),e=t.length;e--;)if(t[e].getAttribute('data-cfhash'))return t[e]}();if(t&&(c=t.previousSibling)){p=t.parentNode;if(a=c.getAttribute('data-cfemail')){for(e='',r='0x'+a.substr(0,2)|0,n=2;a.length-n;n+=2)e+='%'+('0'+('0x'+a.substr(n,2)^r).toString(16)).slice(-2);p.replaceChild(document.createTextNode(decodeURIComponent(e)),c)}p.removeChild(t)}}catch(u){}}()/* ]]> */</script> \r\nFormat settings, CABAC : Yes \r\nFormat settings, ReFrames : 2 frames \r\nCodec ID : V_MPEG4/ISO/AVC \r\nDuration : 26 min 8 s \r\nBit rate : 1 280 kb/s \r\nWidth : 1 920 pixels \r\nHeight : 1 080 pixels \r\nDisplay aspect ratio : 16:9 \r\nFrame rate mode : Constant \r\nFrame rate : 23.976 (24000/1001) FPS \r\nColor space : YUV \r\nChroma subsampling : 4:2:0 \r\nBit depth : 8 bits \r\nScan type : Progressive \r\nBits/(Pixel*Frame) : 0.026 \r\nStream size : 237 MiB (87%) \r\nDefault : Yes \r\nForced : No \r\nColor range : Limited \r\n\r\nAudio \r\nID : 2 \r\nFormat : AAC \r\nFormat/Info : Advanced Audio Codec \r\nFormat profile : LC \r\nCodec ID : A_AAC \r\nDuration : 26 min 8 s \r\nBit rate : 192 kb/s \r\nChannel(s) : 2 channels \r\nChannel positions : Front: L R \r\nSampling rate : 44.1 kHz \r\nFrame rate : 43.066 FPS (1024 spf) \r\nCompression mode : Lossy \r\nStream size : 35.9 MiB (13%) \r\n\r\n..::ScreenShots::.. \r\n <a href=\"\nhttps://s1.postimg.org/5ziu69b5b/vlcsnap-2017-07-07-00h01m42s846.png\" rel=\"nofollow\" target=\"_NEW\">\nhttps://s1.postimg.org/5ziu69b5b/vlcsnap-2017-07-07-00h01m42s846.png</a>  <a href=\"\nhttps://s1.postimg.org/zfyg8ohin/vlcsnap-2017-07-07-00h02m07s170.png\" rel=\"nofollow\" target=\"_NEW\">\nhttps://s1.postimg.org/zfyg8ohin/vlcsnap-2017-07-07-00h02m07s170.png</a>  <a href=\"\nhttps://s1.postimg.org/5coiuh3n3/vlcsnap-2017-07-07-00h02m37s045.png\" rel=\"nofollow\" target=\"_NEW\">\nhttps://s1.postimg.org/5coiuh3n3/vlcsnap-2017-07-07-00h02m37s045.png</a> \r\n\r\n================================================================ \r\nSeed Seed Seed Seed Seed Seed Seed Seed Seed Seed Seed Seed Seed \r\nTo direct download or Watch Online this file, Visit. \r\r\nSeed Seed Seed Seed Seed Seed Seed Seed Seed Seed Seed Seed Seed \r\n================================================================","last_updated":"2017-07-07T12:02:54.156Z","parsed":{"xt":"urn:btih:92ef8c6ced9c06191e3bd4c45928fa0bb8239e2a","dn":"Tokyo Ghoul Season 1 (EngDub) 720p x264 Download","tr":["udp://exodus.desync.com:6969","udp://open.demonii.com:1337","udp://tracker.coppersurfer.tk:6969","udp://tracker.leechers-paradise.org:6969","udp://zer0day.ch:1337"],"infoHash":"92ef8c6ced9c06191e3bd4c45928fa0bb8239e2a","infoHashBuffer":{"type":"Buffer","data":[146,239,140,108,237,156,6,25,30,59,212,196,89,40,250,11,184,35,158,42]},"name":"Tokyo Ghoul Season 1 (EngDub) 720p x264 Download","announce":["udp://exodus.desync.com:6969","udp://open.demonii.com:1337","udp://tracker.coppersurfer.tk:6969","udp://tracker.leechers-paradise.org:6969","udp://zer0day.ch:1337"],"urlList":[]}}